HIERARCHY
ROOT Hips
{
	OFFSET -3.958830 18.904000 13.208200
	CHANNELS 6 Xposition Yposition Zposition Zrotation Yrotation Xrotation 
	JOINT LHipJoint
	{
		OFFSET 0.000000 0.000000 0.000000
		CHANNELS 3 Zrotation Yrotation Xrotation
		JOINT LeftUpLeg
		{
			OFFSET 1.800000 -1.400000 0.085000
			CHANNELS 3 Zrotation Yrotation Xrotation
			JOINT LeftLeg
			{
				OFFSET 2.215000 -6.000000 0.000000
				CHANNELS 3 Zrotation Yrotation Xrotation
				JOINT LeftFoot
				{
					OFFSET 2.500000 -6.900000 0.000000
					CHANNELS 3 Zrotation Yrotation Xrotation
					JOINT LeftToeBase
					{
						OFFSET 0.200000 -0.500000 1.950000
						CHANNELS 3 Zrotation Yrotation Xrotation
						End Site
						{
							OFFSET 0.000000 0.000000 0.000000
						}
					}
				}
			}
		}
	}
	JOINT RHipJoint
	{
		OFFSET 0.000000 0.000000 0.000000
		CHANNELS 3 Zrotation Yrotation Xrotation
		JOINT RightUpLeg
		{
			OFFSET -1.800000 -1.400000 0.085000
			CHANNELS 3 Zrotation Yrotation Xrotation
			JOINT RightLeg
			{
				OFFSET -2.215000 -6.000000 0.000000
				CHANNELS 3 Zrotation Yrotation Xrotation
				JOINT RightFoot
				{
					OFFSET -2.500000 -6.900000 0.000000
					CHANNELS 3 Zrotation Yrotation Xrotation
					JOINT RightToeBase
					{
						OFFSET -0.200000 -0.500000 1.950000
						CHANNELS 3 Zrotation Yrotation Xrotation
						End Site
						{
							OFFSET 0.000000 0.000000 0.000000
						}
					}
				}
			}
		}
	}
	JOINT LowerBack
	{
		OFFSET 0.000000 0.000000 0.000000
		CHANNELS 3 Zrotation Yrotation Xrotation
		JOINT Spine
		{
			OFFSET -0.087000 1.940000 -0.288900
			CHANNELS 3 Zrotation Yrotation Xrotation
			JOINT Spine1
			{
				OFFSET 0.000000 1.950000 0.060000
				CHANNELS 3 Zrotation Yrotation Xrotation
				JOINT Neck
				{
					OFFSET 0.000000 0.000000 0.000000
					CHANNELS 3 Zrotation Yrotation Xrotation
					JOINT Neck1
					{
						OFFSET 0.000000 1.600000 0.340000
						CHANNELS 3 Zrotation Yrotation Xrotation
						JOINT Head
						{
							OFFSET 0.000000 1.667000 -0.240000
							CHANNELS 3 Zrotation Yrotation Xrotation
							End Site
							{
								OFFSET 0.000000 0.000000 0.000000
							}
						}
					}
				}
				JOINT LeftShoulder
				{
					OFFSET 0.000000 0.000000 0.000000
					CHANNELS 3 Zrotation Yrotation Xrotation
					JOINT LeftArm
					{
						OFFSET 2.700000 1.550000 -0.730000
						CHANNELS 3 Zrotation Yrotation Xrotation
						JOINT LeftForeArm
						{
							OFFSET 5.450000 0.000000 0.000000
							CHANNELS 3 Zrotation Yrotation Xrotation
							JOINT LeftHand
							{
								OFFSET 3.450000 0.000000 0.000000
								CHANNELS 3 Zrotation Yrotation Xrotation
								JOINT LeftHandIndex1
								{
									OFFSET 0.750000 0.000000 0.000000
									CHANNELS 3 Zrotation Yrotation Xrotation
									End Site
									{
										OFFSET 0.000000 0.000000 0.000000
									}
								}
							}
						}
					}
				}
				JOINT RightShoulder
				{
					OFFSET 0.000000 0.000000 0.000000
					CHANNELS 3 Zrotation Yrotation Xrotation
					JOINT RightArm
					{
						OFFSET -2.700000 1.550000 -0.730000
						CHANNELS 3 Zrotation Yrotation Xrotation
						JOINT RightForeArm
						{
							OFFSET -5.450000 0.000000 0.000000
							CHANNELS 3 Zrotation Yrotation Xrotation
							JOINT RightHand
							{
								OFFSET -3.450000 0.000000 0.000000
								CHANNELS 3 Zrotation Yrotation Xrotation
								JOINT RightHandIndex1
								{
									OFFSET -0.750000 0.000000 0.000000
									CHANNELS 3 Zrotation Yrotation Xrotation
									End Site
									{
										OFFSET 0.000000 0.000000 0.000000
									}
								}
							}
						}
					}
				}
			}
		}
	}
}
MOTION
Frames: 4
Frame Time: 0.016667
2.439290 17.076870 -1.354770 -0.002379 13.646822 7.434390 -15.476792 13.377914 3.174043 6.591291 -1.778912 -0.131944 -9.764929 4.515532 -2.078160 -0.458915 5.182127 3.169531 0.488320 0.011260 0.199060 18.311224 -8.567827 3.311261 12.263559 4.923844 -33.122269 7.376441 -4.322367 15.160805 0.105395 -1.903489 4.014468 0.162740 0.530790 0.106020 -3.298618 -5.436972 -7.560185 10.570854 -14.591355 11.757270 -14.088754 -11.600707 13.074994 2.248964 -7.473510 -12.999625 -16.322860 8.108071 22.363614 5.348330 1.502930 -9.961320 -8.520932 -10.029110 1.350070 -33.189740 -23.919294 -4.172334 52.809112 -72.042324 -39.552982 -3.408648 1.997079 0.640560 0.230990 -0.317790 0.345090 4.207897 9.346724 13.214388 37.536703 -22.525071 -9.259127 90.627334 31.881177 17.295543 1.373923 -2.054680 -0.430350 0.416390 0.030090 -0.284310 
2.502100 17.062290 -1.220260 0.360879 11.705099 5.671106 -15.484852 13.571888 3.093863 5.995732 -1.149413 2.159092 -8.692278 5.044087 -0.174758 -0.388044 5.255129 3.143629 0.478610 0.003480 0.201650 18.294030 -8.640191 3.279773 12.527211 4.436795 -27.950138 7.258269 -3.404255 9.781115 0.107906 -1.702229 4.119560 0.135250 0.509240 0.098090 -3.257460 -5.579323 -7.546648 9.759249 -14.442939 11.452684 -13.296475 -11.745989 13.533464 2.041366 -7.766378 -13.645759 -17.911938 9.714482 24.540661 5.848410 2.370720 -9.090780 -8.653100 -11.059485 1.797733 -30.079492 -22.511084 -4.303495 39.342344 -68.457731 -28.094511 -3.443638 2.468021 0.655830 0.207800 -0.291810 0.342040 4.752214 10.797618 13.855130 32.563508 -22.006615 -7.081249 96.413934 37.282642 25.301315 1.430812 -2.112564 -0.417300 0.406190 0.019850 -0.281730 
2.546570 17.064220 -1.089810 0.136071 7.978568 3.312967 -15.433551 13.633450 3.017234 5.682107 -0.642753 4.535066 -8.132645 5.630278 2.278979 -0.330982 5.338329 3.082856 0.547050 0.076490 0.280710 18.334505 -8.759075 3.358382 13.986240 4.100762 -22.719689 6.422899 -3.019714 7.215773 -0.004491 -1.765842 4.091415 0.144500 0.397070 0.080230 -3.362118 -5.402885 -7.608135 9.639627 -13.651747 12.543267 -12.612049 -11.059349 13.429675 1.897798 -8.405844 -14.138568 -20.483457 11.224464 27.021164 6.143050 3.122940 -10.991200 -9.541652 -12.348880 2.024748 -26.652792 -21.423989 -4.306713 25.656855 -63.264699 -17.189167 -3.377419 2.768478 0.735390 0.110190 -0.198920 0.339450 6.009458 12.748511 14.338197 27.389351 -21.180048 -5.648451 100.166008 41.337583 31.852582 1.548030 -2.112945 -0.388500 0.391020 -0.038250 -0.301860 
2.588700 17.068870 -0.952090 0.611891 4.587281 1.447024 -15.381131 13.702173 2.950412 4.906367 -0.339325 5.443489 -8.794147 6.503236 6.423998 -0.294323 5.523484 3.004321 0.553840 0.070070 0.327900 18.364016 -8.917801 3.407581 14.674497 3.455134 -18.153042 5.126346 -2.907217 6.147377 -0.100592 -1.942343 4.033234 0.126130 0.345140 0.057150 -3.453648 -5.227738 -7.627639 9.502128 -12.946296 13.050004 -12.052212 -10.457246 12.718307 1.851431 -8.954594 -14.497929 -22.921544 12.481383 29.300651 5.662380 3.669570 -11.620610 -11.407392 -13.372648 2.372558 -23.893875 -19.339941 -4.193908 13.570372 -58.793105 -9.017815 -3.347911 2.896800 0.798230 0.055040 -0.149330 0.325890 8.078998 14.386366 14.570849 24.139370 -20.053490 -5.055800 100.786024 44.087920 35.698411 1.665527 -2.049443 -0.398150 0.407030 -0.056180 -0.323470 
